<?xml version="1.0" encoding="iso-8859-1"?>
<!-- Generator: Adobe Illustrator 18.1.1, SVG Export Plug-In . SVG Version: 6.00 Build 0)  -->
<svg version="1.1" id="Capa_1" xmlns="http://www.w3.org/2000/svg" xmlns:xlink="http://www.w3.org/1999/xlink" x="0px" y="0px"
	 viewBox="0 0 32.439 32.439" style="enable-background:new 0 0 32.439 32.439; fill:orange;" xml:space="preserve">
<g>
	<path d="M16.22,0C7.261,0,0,7.261,0,16.219s7.261,16.22,16.22,16.22c8.957,0,16.219-7.262,16.219-16.22S25.177,0,16.22,0z
		 M16.908,29.747v-2.418c0-0.381-0.309-0.689-0.688-0.689c-0.381,0-0.689,0.309-0.689,0.689v2.418
		c-6.938-0.35-12.49-5.9-12.84-12.839h2.311c0.38,0,0.689-0.309,0.689-0.689c0-0.38-0.31-0.688-0.689-0.688H2.69
		C3.04,8.589,8.596,3.036,15.536,2.688c0,0.013-0.006,0.021-0.006,0.033v2.521c0,0.38,0.309,0.689,0.689,0.689
		s0.688-0.31,0.688-0.689v-2.52c0-0.012-0.006-0.021-0.007-0.033c6.941,0.348,12.496,5.9,12.845,12.842h-2.328
		c-0.38,0-0.688,0.309-0.688,0.688c0,0.381,0.309,0.689,0.688,0.689h2.328C29.397,23.847,23.847,29.397,16.908,29.747z"/>
	<path d="M17.489,16.758c0.047-0.138,0.086-0.278,0.086-0.429c0-0.75-0.606-1.356-1.355-1.356s-1.355,0.606-1.355,1.356
		c0,0.748,0.606,1.355,1.355,1.355c0.072,0,0.135-0.03,0.205-0.041c0.012,0.014,0.018,0.029,0.031,0.041l5.614,4.873l1.513,0.398
		l-0.75-1.561L17.489,16.758z"/>
	<g>
	</g>
	<g>
	</g>
	<g>
	</g>
	<g>
	</g>
	<g>
	</g>
	<g>
	</g>
	<g>
	</g>
	<g>
	</g>
	<g>
	</g>
	<g>
	</g>
	<g>
	</g>
	<g>
	</g>
	<g>
	</g>
	<g>
	</g>
	<g>
	</g>
</g>
<g>
</g>
<g>
</g>
<g>
</g>
<g>
</g>
<g>
</g>
<g>
</g>
<g>
</g>
<g>
</g>
<g>
</g>
<g>
</g>
<g>
</g>
<g>
</g>
<g>
</g>
<g>
</g>
<g>
</g>
</svg>
