<?xml version="1.0" encoding="iso-8859-1"?>
<!-- Generator: Adobe Illustrator 19.0.0, SVG Export Plug-In . SVG Version: 6.00 Build 0)  -->
<svg version="1.1" id="Layer_1" xmlns="http://www.w3.org/2000/svg" xmlns:xlink="http://www.w3.org/1999/xlink" x="0px" y="0px"
	 viewBox="0 0 469.421 469.421" style="enable-background:new 0 0 469.421 469.421; fill:orange;" xml:space="preserve">
<circle cx="389.421" cy="177.21" r="44.138"/>
<circle cx="80" cy="177.21" r="44.138"/>
<path d="M389.421,251.348c-19.914,0-38.114,7.289-52.11,19.332c15.877,17.402,26.864,38.185,32.278,60.668h99.832
	C469.421,287.166,433.604,251.348,389.421,251.348z"/>
<path d="M234.71,255.335c-60.061,0-108.75,48.689-108.75,108.75h217.5C343.46,304.024,294.771,255.335,234.71,255.335z"/>
<path d="M80,251.348c-44.183,0-80,35.817-80,80h99.832c5.413-22.483,16.401-43.266,32.278-60.668
	C118.114,258.638,99.914,251.348,80,251.348z"/>
<circle cx="234.71" cy="165.335" r="60"/>
<g>
</g>
<g>
</g>
<g>
</g>
<g>
</g>
<g>
</g>
<g>
</g>
<g>
</g>
<g>
</g>
<g>
</g>
<g>
</g>
<g>
</g>
<g>
</g>
<g>
</g>
<g>
</g>
<g>
</g>
</svg>
