<?xml version="1.0" encoding="iso-8859-1"?>
<!-- Generator: Adobe Illustrator 18.1.1, SVG Export Plug-In . SVG Version: 6.00 Build 0)  -->
<svg version="1.1" id="Capa_1" xmlns="http://www.w3.org/2000/svg" xmlns:xlink="http://www.w3.org/1999/xlink" x="0px" y="0px"
	 viewBox="0 0 44.321 44.321" style="enable-background:new 0 0 44.321 44.321; fill:orange;" xml:space="preserve">
<g>
	<path  d="M2.242,41.007c-0.063,0-0.128-0.006-0.193-0.019c-0.542-0.105-0.896-0.631-0.79-1.173l0.767-3.924
		c0.105-0.543,0.626-0.899,1.173-0.79c0.542,0.105,0.896,0.631,0.79,1.173l-0.767,3.924C3.129,40.676,2.71,41.007,2.242,41.007z"/>
	<path  d="M12.251,9.359l-7.519-1.47L4.455,7.835L4.37,8.268L0.127,31.444
		c-0.501,3.978,0.521,7.103,2.441,7.478s4.044-2.135,5.078-6.008l4.575-23.11l0.085-0.433L12.251,9.359z"/>
	<path  d="M9.515,3.392c-1.92-0.375-3.748,0.624-4.399,2.535l7.519,1.47
		C12.752,5.382,11.435,3.767,9.515,3.392z"/>
	<path  d="M26.821,40.355h-16c-0.829,0-1.5-0.672-1.5-1.5s0.671-1.5,1.5-1.5h16c0.828,0,1.5,0.672,1.5,1.5
		S27.649,40.355,26.821,40.355z"/>
	<path  d="M42.821,40.355h-10c-0.828,0-1.5-0.672-1.5-1.5s0.672-1.5,1.5-1.5h10c0.828,0,1.5,0.672,1.5,1.5
		S43.649,40.355,42.821,40.355z"/>
</g>
<g>
</g>
<g>
</g>
<g>
</g>
<g>
</g>
<g>
</g>
<g>
</g>
<g>
</g>
<g>
</g>
<g>
</g>
<g>
</g>
<g>
</g>
<g>
</g>
<g>
</g>
<g>
</g>
<g>
</g>
</svg>
